{
  "source": "C:\\Users\\Peter\\Desktop\\stuff\\MIUN\\quantitative_research\\video_compression\\videos\\BVI-HD\\BVI-HD_CDVL_videos\\ORIG\\Hamster_1920x1080_60fps.mp4",
  "output": "C:\\Users\\Peter\\Desktop\\stuff\\MIUN\\quantitative_research\\video_compression\\compressed_videos\\BVI-HD\\vp9\\8\\Hamster_1920x1080_60fps_vp9.webm",
  "codec": "vp9",
  "ok": "Input #0, mov,mp4,m4a,3gp,3g2,mj2, from 'C:\\Users\\Peter\\Desktop\\stuff\\MIUN\\quantitative_research\\video_compression\\videos\\BVI-HD\\BVI-HD_CDVL_videos\\ORIG\\Hamster_1920x1080_60fps.mp4':\n  Metadata:\n    major_brand     : isom\n    minor_version   : 512\n    compatible_brands: isomiso2avc1mp41\n    encoder         : Lavf54.28.101\n  Duration: 00:00:05.00, start: 0.000000, bitrate: 208485 kb/s\n  Stream #0:0[0x1](und): Video: h264 (High 4:4:4 Predictive) (avc1 / 0x31637661), yuv420p(progressive), 1920x1080, 208481 kb/s, 60 fps, 60 tbr, 60 tbn (default)\n    Metadata:\n      handler_name    : VideoHandler\n      vendor_id       : [0][0][0][0]\n[out#0/webm @ 000002277fa59880] Codec AVOption b:a (set bitrate (in bits/s)) has not been used for any stream. The most likely reason is either wrong type (e.g. a video option with no video streams) or that it is a private option of some decoder which was not actually used for any stream.\nStream mapping:\n  Stream #0:0 -> #0:0 (h264 (native) -> vp9 (libvpx-vp9))\nPress [q] to stop, [?] for help\n[libvpx-vp9 @ 000002277fa6cbc0] v1.15.2-100-g40561f514\nOutput #0, webm, to 'C:\\Users\\Peter\\Desktop\\stuff\\MIUN\\quantitative_research\\video_compression\\compressed_videos\\BVI-HD\\vp9\\8\\Hamster_1920x1080_60fps_vp9.webm':\n  Metadata:\n    major_brand     : isom\n    minor_version   : 512\n    compatible_brands: isomiso2avc1mp41\n    encoder         : Lavf62.3.100\n  Stream #0:0(und): Video: vp9, yuv420p(tv, progressive), 1920x1080, q=2-31, 8000 kb/s, 60 fps, 1k tbn (default)\n    Metadata:\n      encoder         : Lavc62.11.100 libvpx-vp9\n      handler_name    : VideoHandler\n      vendor_id       : [0][0][0][0]\n    Side data:\n      cpb: bitrate max/min/avg: 0/0/0 buffer size: 8000000 vbv_delay: N/A\nframe=    2 fps=0.0 q=23.0 size=       1KiB time=00:00:00.03 bitrate= 151.9kbits/s speed=0.0639x elapsed=0:00:00.52    \nframe=    8 fps=7.8 q=29.0 size=       1KiB time=00:00:00.13 bitrate=  38.0kbits/s speed=0.129x elapsed=0:00:01.03    \nframe=   13 fps=8.3 q=24.0 size=       1KiB time=00:00:00.21 bitrate=  23.4kbits/s speed=0.139x elapsed=0:00:01.56    \nframe=   18 fps=8.6 q=31.0 size=       1KiB time=00:00:00.30 bitrate=  16.9kbits/s speed=0.143x elapsed=0:00:02.10    \nframe=   23 fps=8.8 q=30.0 size=       1KiB time=00:00:00.38 bitrate=  13.2kbits/s speed=0.146x elapsed=0:00:02.61    \nframe=   28 fps=8.9 q=31.0 size=       1KiB time=00:00:00.46 bitrate=  10.9kbits/s speed=0.148x elapsed=0:00:03.14    \nframe=   33 fps=9.0 q=33.0 size=       1KiB time=00:00:00.55 bitrate=   9.2kbits/s speed=0.15x elapsed=0:00:03.67    \nframe=   38 fps=9.1 q=30.0 size=       1KiB time=00:00:00.63 bitrate=   8.0kbits/s speed=0.151x elapsed=0:00:04.19    \nframe=   43 fps=9.1 q=30.0 size=       1KiB time=00:00:00.71 bitrate=   7.1kbits/s speed=0.152x elapsed=0:00:04.72    \nframe=   48 fps=9.1 q=31.0 size=       1KiB time=00:00:00.80 bitrate=   6.3kbits/s speed=0.152x elapsed=0:00:05.27    \nframe=   53 fps=9.1 q=29.0 size=       1KiB time=00:00:00.88 bitrate=   5.7kbits/s speed=0.152x elapsed=0:00:05.81    \nframe=   58 fps=9.1 q=28.0 size=       1KiB time=00:00:00.96 bitrate=   5.2kbits/s speed=0.152x elapsed=0:00:06.34    \nframe=   63 fps=9.1 q=27.0 size=       1KiB time=00:00:01.05 bitrate=   4.8kbits/s speed=0.152x elapsed=0:00:06.90    \nframe=   68 fps=9.2 q=30.0 size=       1KiB time=00:00:01.13 bitrate=   4.5kbits/s speed=0.153x elapsed=0:00:07.42    \nframe=   73 fps=9.1 q=15.0 size=       1KiB time=00:00:01.21 bitrate=   4.2kbits/s speed=0.152x elapsed=0:00:07.99    \nframe=   78 fps=9.1 q=31.0 size=       1KiB time=00:00:01.30 bitrate=   3.9kbits/s speed=0.152x elapsed=0:00:08.54    \nframe=   83 fps=9.1 q=33.0 size=       1KiB time=00:00:01.38 bitrate=   3.7kbits/s speed=0.152x elapsed=0:00:09.09    \nframe=   87 fps=9.0 q=32.0 size=       1KiB time=00:00:01.45 bitrate=   3.5kbits/s speed=0.15x elapsed=0:00:09.63    \nframe=   92 fps=9.1 q=33.0 size=       1KiB time=00:00:01.53 bitrate=   3.3kbits/s speed=0.151x elapsed=0:00:10.15    \nframe=   97 fps=9.1 q=21.0 size=       1KiB time=00:00:01.61 bitrate=   3.1kbits/s speed=0.151x elapsed=0:00:10.69    \nframe=  102 fps=9.1 q=37.0 size=       1KiB time=00:00:01.70 bitrate=   3.0kbits/s speed=0.151x elapsed=0:00:11.24    \nframe=  107 fps=9.1 q=37.0 size=       1KiB time=00:00:01.78 bitrate=   2.8kbits/s speed=0.151x elapsed=0:00:11.77    \nframe=  111 fps=9.0 q=36.0 size=       1KiB time=00:00:01.85 bitrate=   2.7kbits/s speed=0.15x elapsed=0:00:12.29    \nframe=  116 fps=9.1 q=36.0 size=       1KiB time=00:00:01.93 bitrate=   2.6kbits/s speed=0.151x elapsed=0:00:12.81    \nframe=  120 fps=9.0 q=35.0 size=       1KiB time=00:00:02.00 bitrate=   2.5kbits/s speed=0.15x elapsed=0:00:13.33    \nframe=  126 fps=9.1 q=34.0 size=       1KiB time=00:00:02.10 bitrate=   2.4kbits/s speed=0.152x elapsed=0:00:13.85    \nframe=  132 fps=9.2 q=35.0 size=    1536KiB time=00:00:02.18 bitrate=5763.2kbits/s speed=0.152x elapsed=0:00:14.38    \nframe=  137 fps=9.2 q=32.0 size=    1536KiB time=00:00:02.28 bitrate=5510.8kbits/s speed=0.153x elapsed=0:00:14.89    \nframe=  142 fps=9.2 q=32.0 size=    1536KiB time=00:00:02.36 bitrate=5316.7kbits/s speed=0.153x elapsed=0:00:15.42    \nframe=  146 fps=9.2 q=18.0 size=    1536KiB time=00:00:02.43 bitrate=5171.1kbits/s speed=0.153x elapsed=0:00:15.95    \nframe=  151 fps=9.2 q=32.0 size=    1536KiB time=00:00:02.51 bitrate=4999.8kbits/s speed=0.153x elapsed=0:00:16.47    \nframe=  157 fps=9.2 q=32.0 size=    1536KiB time=00:00:02.61 bitrate=4808.8kbits/s speed=0.154x elapsed=0:00:17.00    \nframe=  162 fps=9.2 q=33.0 size=    1536KiB time=00:00:02.70 bitrate=4660.3kbits/s speed=0.154x elapsed=0:00:17.51    \nframe=  167 fps=9.3 q=33.0 size=    1536KiB time=00:00:02.78 bitrate=4520.8kbits/s speed=0.154x elapsed=0:00:18.03    \nframe=  172 fps=9.3 q=33.0 size=    1536KiB time=00:00:02.86 bitrate=4389.4kbits/s speed=0.154x elapsed=0:00:18.56    \nframe=  177 fps=9.3 q=32.0 size=    1536KiB time=00:00:02.95 bitrate=4265.4kbits/s speed=0.155x elapsed=0:00:19.08    \nframe=  182 fps=9.3 q=20.0 size=    1536KiB time=00:00:03.03 bitrate=4148.2kbits/s speed=0.155x elapsed=0:00:19.60    \nframe=  187 fps=9.3 q=34.0 size=    1536KiB time=00:00:03.11 bitrate=4037.3kbits/s speed=0.155x elapsed=0:00:20.13    \nframe=  193 fps=9.3 q=33.0 size=    1536KiB time=00:00:03.21 bitrate=3911.8kbits/s speed=0.156x elapsed=0:00:20.67    \nframe=  198 fps=9.3 q=33.0 size=    1536KiB time=00:00:03.30 bitrate=3813.0kbits/s speed=0.156x elapsed=0:00:21.20    \nframe=  203 fps=9.3 q=34.0 size=    1536KiB time=00:00:03.38 bitrate=3719.1kbits/s speed=0.156x elapsed=0:00:21.71    \nframe=  208 fps=9.4 q=36.0 size=    1536KiB time=00:00:03.46 bitrate=3629.7kbits/s speed=0.156x elapsed=0:00:22.24    \nframe=  212 fps=9.3 q=24.0 size=    1536KiB time=00:00:03.53 bitrate=3561.2kbits/s speed=0.155x elapsed=0:00:22.78    \nframe=  217 fps=9.3 q=39.0 size=    1536KiB time=00:00:03.61 bitrate=3479.1kbits/s speed=0.155x elapsed=0:00:23.31    \nframe=  221 fps=9.3 q=41.0 size=    1536KiB time=00:00:03.68 bitrate=3416.2kbits/s speed=0.154x elapsed=0:00:23.86    \nframe=  226 fps=9.3 q=41.0 size=    1536KiB time=00:00:03.76 bitrate=3340.6kbits/s speed=0.154x elapsed=0:00:24.39    \nframe=  230 fps=9.2 q=29.0 size=    1536KiB time=00:00:03.83 bitrate=3282.5kbits/s speed=0.154x elapsed=0:00:24.92    \nframe=  235 fps=9.2 q=42.0 size=    1536KiB time=00:00:03.91 bitrate=3212.7kbits/s speed=0.154x elapsed=0:00:25.44    \nframe=  240 fps=9.2 q=40.0 size=    1536KiB time=00:00:04.00 bitrate=3145.7kbits/s speed=0.154x elapsed=0:00:25.98    \nframe=  245 fps=9.2 q=40.0 size=    1536KiB time=00:00:04.06 bitrate=3094.2kbits/s speed=0.153x elapsed=0:00:26.50    \nframe=  249 fps=9.2 q=38.0 size=    1536KiB time=00:00:04.15 bitrate=3032.0kbits/s speed=0.153x elapsed=0:00:27.05    \nframe=  255 fps=9.2 q=35.0 size=    1536KiB time=00:00:04.23 bitrate=2972.3kbits/s speed=0.154x elapsed=0:00:27.57    \nframe=  260 fps=9.3 q=33.0 size=    3328KiB time=00:00:04.33 bitrate=6291.5kbits/s speed=0.154x elapsed=0:00:28.10    \nframe=  266 fps=9.3 q=32.0 size=    3328KiB time=00:00:04.43 bitrate=6149.5kbits/s speed=0.155x elapsed=0:00:28.63    \nframe=  272 fps=9.3 q=32.0 size=    3328KiB time=00:00:04.53 bitrate=6013.9kbits/s speed=0.155x elapsed=0:00:29.16    \nframe=  276 fps=9.3 q=31.0 size=    3328KiB time=00:00:04.60 bitrate=5926.7kbits/s speed=0.155x elapsed=0:00:29.69    \nframe=  276 fps=9.1 q=31.0 size=    3328KiB time=00:00:04.60 bitrate=5926.7kbits/s speed=0.152x elapsed=0:00:30.20    \nframe=  276 fps=9.0 q=31.0 size=    3328KiB time=00:00:04.60 bitrate=5926.7kbits/s speed=0.15x elapsed=0:00:30.74    \nframe=  276 fps=8.8 q=31.0 size=    3328KiB time=00:00:04.60 bitrate=5926.7kbits/s speed=0.147x elapsed=0:00:31.28    \n[out#0/webm @ 000002277fa59880] video:4130KiB audio:0KiB subtitle:0KiB other streams:0KiB global headers:0KiB muxing overhead: 0.067680%\nframe=  300 fps=9.5 q=29.0 Lsize=    4132KiB time=00:00:05.00 bitrate=6770.6kbits/s speed=0.158x elapsed=0:00:31.70    \n",
  "seconds": 31.93887495994568,
  "probe_out": {}
}